<svg width="382" height="93" viewBox="0 0 382 93" fill="none" xmlns="http://www.w3.org/2000/svg">
<path d="M42.3755 29.2374C37.6955 23.8374 31.7556 21.1374 24.7355 21.1374C20.0555 21.1374 15.8255 22.2174 12.1355 24.3774C8.35553 26.5374 5.47552 29.5074 3.40552 33.2874C1.33552 37.0674 0.34552 41.3874 0.34552 46.1574C0.34552 50.8374 1.33554 55.1574 3.49554 58.9374C5.65554 62.7174 8.62553 65.6874 12.4055 67.8474C16.1855 70.0074 20.4155 71.0874 25.1855 71.0874C31.6655 71.0874 37.0655 69.1074 41.3855 65.0574C42.1055 64.3374 42.4655 63.5274 42.4655 62.6274C42.4655 61.4574 41.8355 60.3774 40.7555 59.3874C40.0355 58.8474 39.2256 58.5774 38.4156 58.5774C37.3356 58.5774 36.1655 59.0274 35.0855 59.8374C32.5655 61.9974 29.2355 62.9874 25.1855 62.9874C22.0355 62.9874 19.2456 62.2674 16.8156 60.8274C14.3856 59.3874 12.4955 57.4074 11.1455 54.8874C9.79554 52.3674 9.16552 49.3974 9.16552 46.1574C9.16552 41.1174 10.6056 36.9774 13.4855 33.9174C16.3655 30.8574 20.0555 29.2374 24.7355 29.2374C26.9855 29.2374 28.9655 29.6874 30.7655 30.4074C32.5655 31.1274 34.1855 32.2974 35.7155 33.9174C36.6155 34.9974 37.7855 35.5374 39.2255 35.5374C39.9455 35.5374 40.6655 35.3574 41.2955 34.9074C42.5555 34.0074 43.2756 32.9274 43.2756 31.5774C43.2756 30.6774 42.9155 29.9574 42.3755 29.2374Z" fill="#48bb78"/>
<path d="M92.6462 23.7474C89.3162 21.9474 85.6262 21.0474 81.4862 21.0474C78.4262 21.0474 75.6362 21.5874 73.0262 22.6674C70.3262 23.7474 68.0762 25.1874 66.1862 27.0774V5.0274C66.1862 3.6774 65.7362 2.59741 64.9262 1.69741C64.0262 0.887408 62.9462 0.437408 61.5962 0.437408C60.2462 0.437408 59.1662 0.887408 58.2662 1.69741C57.3662 2.59741 57.0062 3.6774 57.0062 5.0274V66.2274C57.0062 67.5774 57.3662 68.6574 58.2662 69.5574C59.1662 70.4574 60.2462 70.8174 61.5962 70.8174C62.9462 70.8174 64.0262 70.4574 64.9262 69.5574C65.7362 68.6574 66.1862 67.5774 66.1862 66.2274V40.8474C66.1862 38.6874 66.7262 36.7974 67.8962 34.9974C69.0662 33.2874 70.6862 31.9374 72.7562 30.8574C74.8262 29.8674 77.1662 29.3274 79.6862 29.3274C84.0062 29.3274 87.4262 30.5874 90.0362 33.1074C92.6462 35.6274 93.9962 39.2274 93.9962 44.0874V66.2274C93.9962 67.5774 94.3562 68.6574 95.2562 69.5574C96.1562 70.4574 97.2362 70.8174 98.5862 70.8174C99.8462 70.8174 100.926 70.4574 101.826 69.5574C102.726 68.6574 103.176 67.5774 103.176 66.2274V44.0874C103.176 39.2274 102.186 35.0874 100.386 31.6674C98.4962 28.2474 95.8862 25.5474 92.6462 23.7474Z" fill="#48bb78"/>
<path d="M145.98 20.1474C138.42 20.1474 132.03 22.8474 126.63 28.1574C121.32 33.4674 118.71 39.8574 118.71 47.4174V66.4074C118.71 67.6674 119.07 68.6574 119.97 69.4674C120.78 70.3674 121.77 70.7274 123.03 70.7274C124.2 70.7274 125.19 70.3674 126 69.4674C126.9 68.6574 127.35 67.6674 127.35 66.4074V47.4174C127.35 42.2874 129.15 37.8774 132.75 34.2774C136.44 30.5874 140.85 28.7874 145.98 28.7874C147.15 28.7874 148.14 28.3374 149.04 27.5274C149.85 26.6274 150.3 25.6374 150.3 24.4674C150.3 23.2974 149.85 22.2174 149.04 21.4074C148.14 20.5974 147.15 20.1474 145.98 20.1474Z" fill="#48bb78"/>
<path d="M181.014 71.0874C187.944 71.0874 193.793 68.6574 198.653 63.7974C203.513 58.9374 206.033 53.0874 206.033 46.1574C206.033 39.2274 203.513 33.3774 198.653 28.5174C193.793 23.6574 187.944 21.1374 181.014 21.1374C174.084 21.1374 168.234 23.6574 163.374 28.5174C158.514 33.3774 156.084 39.2274 156.084 46.1574C156.084 53.0874 158.514 58.9374 163.374 63.7974C168.234 68.6574 174.084 71.0874 181.014 71.0874ZM181.014 29.7774C185.514 29.7774 189.384 31.3974 192.624 34.5474C195.774 37.7874 197.393 41.6574 197.393 46.1574C197.393 50.6574 195.774 54.5274 192.624 57.6774C189.384 60.9174 185.514 62.4474 181.014 62.4474C176.514 62.4474 172.644 60.9174 169.494 57.6774C166.254 54.5274 164.724 50.6574 164.724 46.1574C164.724 41.6574 166.254 37.7874 169.494 34.5474C172.644 31.3974 176.514 29.7774 181.014 29.7774Z" fill="#48bb78"/>
<path d="M261.094 70.9974C262.354 70.9974 263.434 70.5474 264.334 69.6474C265.234 68.7474 265.594 67.6674 265.594 66.4074V43.2774C265.594 36.9774 263.344 31.5774 258.934 27.0774C254.434 22.5774 248.944 20.3274 242.644 20.3274C236.254 20.3274 230.854 22.5774 226.354 27.0774C221.854 31.5774 219.604 36.9774 219.604 43.2774V66.4074C219.604 67.6674 220.054 68.7474 220.954 69.6474C221.854 70.5474 222.934 70.9074 224.104 70.9074C225.364 70.9074 226.444 70.5474 227.344 69.6474C228.244 68.7474 228.604 67.6674 228.604 66.4074V43.2774C228.604 39.4974 230.044 36.1674 232.744 33.4674C235.444 30.6774 238.774 29.3274 242.644 29.3274C246.514 29.3274 249.754 30.6774 252.544 33.4674C255.244 36.1674 256.594 39.4974 256.594 43.2774V66.4974C256.594 67.6674 257.044 68.7474 257.944 69.6474C258.844 70.5474 259.924 70.9974 261.094 70.9974Z" fill="#48bb78"/>
<path d="M283.111 22.7574C282.211 23.6574 281.851 24.7374 281.851 26.0874V66.1374C281.851 67.4874 282.211 68.5674 283.111 69.4674C284.011 70.3674 285.091 70.7274 286.441 70.7274C287.791 70.7274 288.871 70.3674 289.771 69.4674C290.581 68.5674 291.031 67.4874 291.031 66.1374V26.0874C291.031 24.7374 290.581 23.6574 289.771 22.7574C288.871 21.9474 287.791 21.4974 286.441 21.4974C285.091 21.4974 284.011 21.9474 283.111 22.7574ZM290.581 3.40739C289.411 2.23739 288.061 1.60739 286.441 1.60739C284.821 1.60739 283.381 2.23739 282.211 3.40739C281.041 4.57739 280.501 5.92739 280.501 7.54739C280.501 9.16739 281.041 10.6074 282.211 11.7774C283.381 12.9474 284.821 13.4874 286.441 13.4874C288.061 13.4874 289.411 12.9474 290.581 11.7774C291.751 10.6074 292.382 9.16739 292.382 7.54739C292.382 5.92739 291.751 4.57739 290.581 3.40739Z" fill="#48bb78"/>
<path d="M327.638 9.07739C328.898 9.07739 329.888 8.71739 330.788 7.81739C331.688 6.91739 332.138 5.8374 332.138 4.5774C332.138 3.3174 331.688 2.32739 330.788 1.42739C329.888 0.527395 328.898 0.0773926 327.638 0.0773926C322.508 0.0773926 318.188 1.87739 314.588 5.47739C310.988 9.07739 309.188 13.4874 309.188 18.5274V66.4074C309.188 67.6674 309.548 68.7474 310.448 69.6474C311.348 70.5474 312.428 70.9074 313.688 70.9074C314.948 70.9074 315.938 70.5474 316.838 69.6474C317.738 68.7474 318.188 67.6674 318.188 66.4074V31.2174H327.188C328.268 31.2174 329.258 30.8574 330.068 30.0474C330.788 29.3274 331.238 28.3374 331.238 27.1674C331.238 26.0874 330.788 25.0974 330.068 24.2874C329.258 23.5674 328.268 23.1174 327.188 23.1174H318.188V18.5274C318.188 16.0074 319.088 13.7574 320.978 11.8674C322.778 10.0674 325.028 9.07739 327.638 9.07739Z" fill="#48bb78"/>
<path d="M381.654 25.4574C381.654 23.8374 380.664 22.6674 378.864 21.9474C378.144 21.6774 377.424 21.4974 376.704 21.4974C375.084 21.4974 373.914 22.3974 373.194 24.1074L358.704 56.7774L342.234 24.0174C341.334 22.3974 340.074 21.4974 338.454 21.4974C337.734 21.4974 337.194 21.6774 336.654 21.8574C335.844 22.2174 335.214 22.7574 334.764 23.3874C334.224 24.1074 334.044 24.8274 334.044 25.5474C334.044 26.2674 334.134 26.8974 334.494 27.4374L354.744 65.8674L345.744 86.1174C345.384 86.8374 345.204 87.5574 345.204 88.2774C345.204 89.8974 346.104 91.0674 347.904 91.7874C348.714 92.1474 349.434 92.3274 350.064 92.3274C351.684 92.3274 352.854 91.4274 353.574 89.5374L381.114 27.6174C381.474 26.8074 381.654 26.0874 381.654 25.4574Z" fill="#48bb78"/>
</svg>
